<svg xmlns="http://www.w3.org/2000/svg" width="224.927" height="36.609" viewBox="0 0 224.927 36.609">
  <g id="Group_319" data-name="Group 319" transform="translate(0.333 -43.999)">
    <g id="Logo">
      <path id="Path_205" data-name="Path 205" d="M48.587,0,42.534,1.793V27.606c0,7.287,3.7,9.865,13,8.745V30.91c-4.6.219-6.951.281-6.951-3.308V12.552h6.951V7.109H48.587ZM24.826,15.582c0-2.017,1.905-2.97,4.093-2.97a5.448,5.448,0,0,1,5.261,3.2l5.1-2.85A11.3,11.3,0,0,0,28.912,7.127c-5.717,0-10.257,3.308-10.257,8.578,0,5.884,5.187,7.354,9.476,8.57,3.024.857,5.6,1.588,5.6,3.649,0,2.24-2.076,3.137-4.766,3.137-3.082,0-5.325-1.513-6.221-4.036l-5.213,3.019C19.326,34.08,23.362,36.6,28.967,36.6c6.055,0,10.93-3.027,10.93-8.633,0-6.094-5.209-7.542-9.5-8.736-3.012-.837-5.575-1.549-5.575-3.652ZM65.1,12.555a9.03,9.03,0,0,1,8.633-5.445l0,6.559c-3.979-.281-8.633,1.8-8.633,8.08V36.609H59.046V7.109H65.1ZM88.524,7.118c-8.8,0-14.793,6.449-14.793,14.742,0,8.407,6,14.742,15.244,14.742,5.494,0,9.7-2.3,12.276-6.11l-4.989-2.916a8.527,8.527,0,0,1-7.234,3.475c-4.483,0-8.015-2.24-8.968-6.614h22.31a18.391,18.391,0,0,0,.219-2.521C102.589,13.847,96.874,7.12,88.524,7.118ZM80.01,19.51a8.143,8.143,0,0,1,8.462-6.894,7.8,7.8,0,0,1,8.017,6.894Zm39.382-12.4A14.431,14.431,0,0,1,134.183,21.67v14.94h-6.057V33a13.433,13.433,0,0,1-8.734,3.611,14.749,14.749,0,1,1,0-29.5ZM110.645,21.86a8.749,8.749,0,1,0,17.5,0,8.749,8.749,0,1,0-17.5,0ZM165.6,7.109a12.974,12.974,0,0,0-8.416,3.507A12.931,12.931,0,0,0,148.8,7.109c-6.887,0-11.515,4.042-11.515,10.06v19.44h6.263V18.272c0-2.1.912-5.25,5.261-5.25s5.261,3.154,5.261,5.25V36.609h6.288V18.272c0-2.1.912-5.25,5.261-5.25s5.261,3.154,5.261,5.25V36.609H177.1V17.169c0-6.018-4.6-10.06-11.474-10.06Zm36.1,4.038-13.06,19.484h13.62V36.6H180.4V32.567l13.115-20.014H180.4V7.111h21.3Z" transform="translate(22.339 43.999)" fill="#fff" fill-rule="evenodd"/>
      <path id="Path_204" data-name="Path 204" d="M49.767,10.1c1.364-3.273,4.88-5.261,9.12-5.423H7.605V10.1Z" transform="translate(-7.939 46.455)" fill="#f64900"/>
      <path id="Path_203" data-name="Path 203" d="M48.265,20.412,7.681,19.381V26.39H59.333c-5.283-.024-9.159-2.3-11.064-5.969" transform="translate(-7.881 54.219)" fill="#f20d3a"/>
      <path id="Path_200" data-name="Path 200" d="M49.178,11.37a8.139,8.139,0,0,1,.607-3.141H7.958V14.2H49.671a7.76,7.76,0,0,1-.493-2.837" transform="translate(-7.957 48.323)" fill="#fed71f"/>
      <path id="Path_201" data-name="Path 201" d="M49.712,12.144H8v6.112H59.993c-3.711-1.109-8.714-2.069-10.281-6.114" transform="translate(-8 50.379)" fill="#ff0a5a"/>
      <path id="Path_202" data-name="Path 202" d="M59.941,16.155,7.823,16.018v5.875l40.509.256c-.1-.191-.2-.388-.285-.587L52.9,18.742a6.166,6.166,0,0,0,6.138,3.828h.438c2.69,0,4.764-.9,4.764-3.137,0-1.754-1.877-2.55-4.3-3.288" transform="translate(-7.948 52.482)" fill="#cc0243"/>
    </g>
  </g>
</svg>
