<svg xmlns="http://www.w3.org/2000/svg" width="26.343" height="24.746" viewBox="0 0 26.343 24.746">
  <g id="Group_308" data-name="Group 308" transform="translate(-159 -268)">
    <g id="Rectangle_175" data-name="Rectangle 175" transform="translate(159 268)" fill="none" stroke="#fff" stroke-width="1">
      <rect width="26.343" height="24.746" rx="5" stroke="none"/>
      <rect x="0.5" y="0.5" width="25.343" height="23.746" rx="4.5" fill="none"/>
    </g>
    <g id="plus" transform="translate(166.761 274.54)">
      <path id="Path_216" data-name="Path 216" d="M13.73,7.875a.651.651,0,0,1,.651.651v5.2a.651.651,0,0,1-.651.651h-5.2a.651.651,0,0,1,0-1.3H13.08V8.526A.651.651,0,0,1,13.73,7.875Z" transform="translate(-7.875 -7.875)" fill="#fff" fill-rule="evenodd"/>
      <path id="Path_217" data-name="Path 217" d="M16.875,17.526a.651.651,0,0,1,.651-.651h5.2a.651.651,0,1,1,0,1.3H18.176V22.73a.651.651,0,1,1-1.3,0Z" transform="translate(-11.67 -11.67)" fill="#fff" fill-rule="evenodd"/>
    </g>
  </g>
</svg>
