<svg xmlns="http://www.w3.org/2000/svg" width="22.711" height="23.263" viewBox="0 0 22.711 23.263">
  <path id="settings" d="M19.972,13.027l2.457,1.911a.578.578,0,0,1,.164.765l-2.348,4.041a.478.478,0,0,1-.71.218l-2.894-1.147a11.018,11.018,0,0,1-1.966,1.147l-.437,3.058a.521.521,0,0,1-.6.491H9a.562.562,0,0,1-.6-.491l-.437-3.058a8.957,8.957,0,0,1-1.966-1.147L3.1,19.962a.532.532,0,0,1-.71-.218L.041,15.7a.578.578,0,0,1,.164-.765l2.457-1.911q-.054-.655-.054-1.147t.054-1.147L.205,8.822a.578.578,0,0,1-.164-.765L2.389,4.017A.493.493,0,0,1,3.1,3.8L5.993,4.945A11.018,11.018,0,0,1,7.959,3.8L8.4.74A.562.562,0,0,1,9,.249h4.641a.522.522,0,0,1,.6.491L14.676,3.8a8.957,8.957,0,0,1,1.966,1.147L19.536,3.8a.532.532,0,0,1,.71.218l2.348,4.041a.578.578,0,0,1-.164.765l-2.457,1.911a7.077,7.077,0,0,1,.109,1.147A7.077,7.077,0,0,1,19.972,13.027Zm-8.655,2.949a3.913,3.913,0,0,0,2.867-1.2,3.945,3.945,0,0,0,1.2-2.894,3.945,3.945,0,0,0-1.2-2.894,4.022,4.022,0,0,0-5.733,0,3.945,3.945,0,0,0-1.2,2.894,3.945,3.945,0,0,0,1.2,2.894A3.913,3.913,0,0,0,11.318,15.976Z" transform="translate(0.038 -0.249)" fill="#fff"/>
</svg>
